<svg height="100" viewBox="0 0 100 100" width="100" xmlns="http://www.w3.org/2000/svg"><path d="m67.75 0h-49.917c-2.761 0-5 2.239-5 5v90c0 2.761 2.239 5 5 5h65.333c2.761 0 5-2.239 5-5v-74.583z" fill="#363a56"/><g fill="#fff"><path d="m67.75 15.417c0 2.761 2.239 5 5 5h15.417l-20.417-20.417z" opacity=".3"/><path d="m28.868 2.75h-3.069v-2.75h3.069zm3.068 0h-3.069v2.75h3.069zm-3.068 2.75h-3.069v2.75h3.069zm3.068 2.75h-3.069v2.75h3.069zm-3.068 2.75h-3.069v2.75h3.069zm3.068 2.75h-3.069v2.75h3.069zm-3.068 2.75h-3.069v2.75h3.069zm3.068 2.75h-3.069v2.75h3.069zm-3.068 2.75h-3.069v2.75h3.069zm3.068 2.75h-3.069v2.75h3.069zm-3.068 2.75h-3.069v2.75h3.069zm3.068 2.75h-3.069v2.75h3.069zm-3.068 2.75h-3.069v2.75h3.069zm3.068 2.75h-3.069v2.75h3.069zm-3.068 2.75h-3.069v2.75h3.069zm3.068 2.75h-3.069v2.75h3.069zm-3.068 2.75h-3.069v2.75h3.069zm3.068 2.75h-3.069v2.75h3.069zm-3.068 2.75h-3.069v2.75h3.069zm3.068 2.75h-3.069v2.75h3.069zm-3.068 2.75h-3.069v2.75h3.069zm3.068 2.75h-3.069v2.75h3.069zm1.598 11.5v-8.75h-9.333v8.75zm0 1v2.5h-9.333v-2.5z"/></g></svg>