<svg height="100" viewBox="0 0 100 100" width="100" xmlns="http://www.w3.org/2000/svg"><path d="m67.75 0h-49.917c-2.761 0-5 2.239-5 5v90c0 2.761 2.239 5 5 5h65.333c2.761 0 5-2.239 5-5v-74.583z" fill="#ff6469"/><g fill="#fff"><path d="m67.75 15.417c0 2.761 2.239 5 5 5h15.417l-20.417-20.417z" opacity=".3"/><path d="m53.626 49.038v16.028s-3.847-5.001-11.797-5.001-15.644 5.77-15.644 11.797 6.283 11.54 15.259 11.54 15.259-6.54 15.259-8.847c0-2.308.032-45.232.032-45.232s7.405-1.122 15.612 4.84l2.051-1.411s-4.103-6.155-17.663-6.155h-2.981z"/></g></svg>