<svg height="100" viewBox="0 0 100 100" width="100" xmlns="http://www.w3.org/2000/svg"><path d="m67.75 0h-49.917c-2.761 0-5 2.239-5 5v90c0 2.761 2.239 5 5 5h65.333c2.761 0 5-2.239 5-5v-74.583z" fill="#363a56"/><g fill="#fff"><path d="m67.75 15.417c0 2.761 2.239 5 5 5h15.417l-20.417-20.417z" opacity=".3"/><path d="m27.839 46.773h-.052l-3.217 1.531-.649-2.957 4.462-2.075h3.27v16.863h-3.814z"/><path d="m49.657 51.624c0 5.215-2.101 8.795-6.408 8.795-4.359 0-6.279-3.918-6.305-8.691 0-4.878 2.075-8.743 6.434-8.743 4.516 0 6.279 4.021 6.279 8.639zm-8.742.104c-.026 3.865.908 5.707 2.439 5.707s2.361-1.919 2.361-5.759c0-3.736-.804-5.708-2.387-5.708-1.454 0-2.439 1.843-2.413 5.76z"/><path d="m56.637 46.773h-.053l-3.217 1.531-.648-2.957 4.462-2.075h3.27v16.863h-3.813v-13.362z"/><path d="m71.034 46.773h-.053l-3.217 1.531-.648-2.957 4.462-2.075h3.27v16.863h-3.813c-.001-.001-.001-13.362-.001-13.362z"/><path d="m35.259 72.978c0 5.214-2.101 8.794-6.408 8.794-4.359 0-6.279-3.918-6.305-8.691 0-4.877 2.075-8.743 6.434-8.743 4.515 0 6.279 4.022 6.279 8.64zm-8.743.103c-.026 3.866.908 5.708 2.439 5.708s2.361-1.92 2.361-5.759c0-3.736-.804-5.708-2.387-5.708-1.453 0-2.439 1.842-2.413 5.759z"/><path d="m42.238 68.126h-.052l-3.217 1.531-.649-2.957 4.462-2.076h3.27v16.864h-3.814z"/><path d="m56.637 68.126h-.053l-3.217 1.531-.648-2.957 4.462-2.076h3.27v16.864h-3.813v-13.362z"/><path d="m78.453 72.978c0 5.214-2.102 8.794-6.408 8.794-4.359 0-6.278-3.918-6.305-8.691 0-4.877 2.076-8.743 6.434-8.743 4.515 0 6.279 4.022 6.279 8.64zm-8.743.103c-.026 3.866.908 5.708 2.439 5.708s2.361-1.92 2.361-5.759c0-3.736-.805-5.708-2.387-5.708-1.453 0-2.438 1.842-2.413 5.759z"/></g></svg>