<svg height="100" viewBox="0 0 100 100" width="100" xmlns="http://www.w3.org/2000/svg"><path d="m67.75 0h-49.917c-2.761 0-5 2.239-5 5v90c0 2.761 2.239 5 5 5h65.333c2.761 0 5-2.239 5-5v-74.583z" fill="#aae51b"/><g fill="#fff"><path d="m67.75 15.417c0 2.761 2.239 5 5 5h15.417l-20.417-20.417z" opacity=".3"/><path d="m21.005 61.472 21.12-9.812v4.665l-15.972 6.996v.088l15.972 6.996v4.664l-21.12-9.812c0-.001 0-3.785 0-3.785z"/><path d="m42.922 81.379 9.416-36.079h4.444l-9.415 36.079z"/><path d="m77.995 65.389-21.12 9.68v-4.664l16.325-6.996v-.088l-16.324-6.996v-4.665l21.12 9.68v4.049z"/></g></svg>