<svg height="100" viewBox="0 0 100 100" width="100" xmlns="http://www.w3.org/2000/svg"><path d="m67.75 0h-49.917c-2.761 0-5 2.239-5 5v90c0 2.761 2.239 5 5 5h65.333c2.761 0 5-2.239 5-5v-74.583z" fill="#0070ba"/><g fill="#fff"><path d="m67.75 15.417c0 2.761 2.239 5 5 5h15.417l-20.417-20.417z" opacity=".3"/><path d="m29.72 35.667 3.692 41.404 16.564 4.596 16.61-4.604 3.695-41.396zm32.892 9.468-1.249 13.994-.863 9.654-.077.859-10.416 2.888-10.402-2.888-.71-7.973h5.096l.362 4.051 5.659 1.526.014-.004h.004l5.647-1.523.592-6.586h-11.85l-.101-1.14-.232-2.576-.121-1.361h12.756l.466-5.198h-19.432l-.101-1.143-.232-2.576-.12-1.363h25.433z"/></g></svg>