<svg height="100" viewBox="0 0 100 100" width="100" xmlns="http://www.w3.org/2000/svg"><path d="m67.75 0h-49.917c-2.761 0-5 2.239-5 5v90c0 2.761 2.239 5 5 5h65.333c2.761 0 5-2.239 5-5v-74.583z" fill="#43d4ad" opacity=".9"/><g fill="#fff"><path d="m67.75 15.417c0 2.761 2.239 5 5 5h15.417l-20.417-20.417z" opacity=".4"/><path d="m50.015 47.724c5.35 0 9.705 4.355 9.705 9.705s-4.355 9.705-9.705 9.705-9.705-4.355-9.705-9.705 4.355-9.705 9.705-9.705m0-2.082c-6.495 0-11.787 5.283-11.787 11.787s5.293 11.787 11.787 11.787 11.787-5.292 11.787-11.787-5.292-11.787-11.787-11.787z"/><path d="m52.136 35.275.956 5.093c.142.767.71 1.392 1.458 1.619 1.088.322 2.13.748 3.077 1.259.313.171.653.246.985.246.417 0 .824-.123 1.174-.359l4.337-2.973 3.143 3.143-2.954 4.337c-.445.643-.483 1.477-.113 2.168.501.928.919 1.931 1.231 2.992.227.748.843 1.307 1.61 1.449l5.122.966v4.441l-5.122.956c-.767.142-1.392.701-1.61 1.449-.322 1.079-.748 2.102-1.259 3.049-.369.691-.332 1.524.113 2.168l2.935 4.289-3.144 3.133-4.307-2.955c-.351-.246-.767-.359-1.174-.359-.341 0-.672.085-.985.246-.946.511-1.979.927-3.049 1.24-.748.217-1.316.843-1.458 1.619l-.956 5.093h-4.441l-.966-5.151c-.142-.758-.691-1.382-1.439-1.61-1.032-.322-2.017-.729-2.926-1.221-.313-.171-.653-.246-.994-.246-.417 0-.824.123-1.174.359l-4.251 2.907-3.143-3.143 2.907-4.251c.436-.643.483-1.477.113-2.168-.511-.937-.928-1.95-1.24-3.011-.227-.748-.843-1.307-1.61-1.449l-5.122-.956v-4.441l5.122-.956c.767-.142 1.382-.701 1.61-1.449.313-1.042.72-2.036 1.212-2.954.369-.681.322-1.515-.113-2.159l-2.944-4.308 3.143-3.143 4.279 2.926c.351.246.767.359 1.174.359.341 0 .681-.085.994-.255.919-.501 1.913-.919 2.954-1.231.739-.227 1.297-.843 1.439-1.61l.966-5.151zm.729-2.084h-5.889c-.559 0-1.088.445-1.184.985l-1.098 5.87c-1.165.359-2.291.824-3.343 1.392l-4.876-3.343c-.199-.132-.436-.199-.672-.199-.322 0-.643.113-.862.341l-4.166 4.166c-.388.388-.455 1.079-.142 1.534l3.361 4.905c-.568 1.051-1.023 2.178-1.373 3.343l-5.842 1.098c-.559.113-1.004.643-1.004 1.193v5.889c0 .559.445 1.088.985 1.184l5.832 1.098c.359 1.193.824 2.339 1.401 3.408l-3.323 4.857c-.313.455-.246 1.146.142 1.534l4.166 4.166c.227.227.549.341.862.341.236 0 .474-.067.672-.199l4.857-3.323c1.042.568 2.149 1.023 3.304 1.382l1.098 5.87c.104.539.635.985 1.184.985h5.889c.559 0 1.088-.445 1.184-.985l1.088-5.813c1.203-.351 2.357-.824 3.446-1.401l4.914 3.361c.199.132.436.199.672.199.322 0 .643-.113.862-.341l4.166-4.166c.388-.388.455-1.079.142-1.534l-3.343-4.886c.587-1.088 1.07-2.244 1.43-3.446l5.832-1.098c.539-.104.985-.635.985-1.184v-5.889c0-.559-.445-1.088-.985-1.184l-5.842-1.098c-.351-1.184-.824-2.31-1.392-3.38l3.38-4.942c.313-.455.246-1.146-.142-1.534l-4.166-4.166c-.227-.227-.549-.341-.862-.341-.236 0-.474.067-.672.199l-4.942 3.38c-1.098-.587-2.263-1.07-3.485-1.42l-1.088-5.813c-.073-.55-.602-.995-1.161-.995z"/></g></svg>