<svg height="100" viewBox="0 0 100 100" width="100" xmlns="http://www.w3.org/2000/svg"><path d="m67.75 0h-49.917c-2.761 0-5 2.239-5 5v90c0 2.761 2.239 5 5 5h65.333c2.761 0 5-2.239 5-5v-74.583z" fill="#61d1f2"/><g fill="#fff"><path d="m67.75 15.417c0 2.761 2.239 5 5 5h15.417l-20.417-20.417z" opacity=".3"/><path d="m55.878 29.274h22.546v4.629h-22.546zm-33.303 57.619h22.546v-4.575h-22.546zm0-42.642h55.767v-4.629h-55.767c0-.001 0 4.629 0 4.629zm.083 10.565h55.767v-4.629h-55.767zm-.083 11.327h55.767v-4.629h-55.767zm.083 10.729h55.767v-4.793h-55.767z"/></g></svg>