<svg height="100" viewBox="0 0 100 100" width="100" xmlns="http://www.w3.org/2000/svg"><path d="m87.651 34.103-.019-7.734c-.034-3.365-3.063-3.501-3.063-3.501l-43.695-.034c-.977 0-2.183-1.214-2.906-2.058-.127-.207-.326-.521-.634-1-1.838-2.855-2.994-2.651-2.994-2.651h-11.434s-4.662-.003-6.772-.003c-3.846 0-3.846 3.47-3.846 3.47v13.512z" fill="#2aa8e2"/><path d="m87.7 34.016s-.034-3.535-3.54-3.535c-3.505 0-68.435.034-68.435.034s-3.402.17-3.402 3.638v45.805s0 2.921 2.898 2.921h69.005s3.487 0 3.487-3.086z" fill="#61d1f2"/></svg>