<svg height="100" viewBox="0 0 100 100" width="100" xmlns="http://www.w3.org/2000/svg"><path d="m87.651 34.103-.019-7.734c-.034-3.365-3.063-3.501-3.063-3.501l-43.695-.034c-.977 0-2.183-1.214-2.906-2.058-.127-.207-.326-.521-.634-1-1.838-2.855-2.994-2.651-2.994-2.651h-11.434s-4.662-.003-6.772-.003c-3.846 0-3.846 3.47-3.846 3.47v13.512z" fill="#2aa8e2"/><path d="m87.7 34.016s-.034-3.535-3.54-3.535c-3.505 0-68.435.034-68.435.034s-3.402.17-3.402 3.638v45.805s0 2.921 2.898 2.921h69.005s3.487 0 3.487-3.086z" fill="#61d1f2"/><path d="m71.924 75.886h-1.515c-1.15 0-2.017-.812-2.017-1.886v-13.91l-2.622 2.614c-.358.377-.879.595-1.417.595s-1.059-.218-1.427-.603l-.881-.881c-.385-.385-.597-.889-.597-1.421 0-.533.216-1.054.597-1.431l7.703-7.703c.352-.37.872-.585 1.422-.585.536 0 1.059.214 1.429.585l7.703 7.703c.373.389.585.908.585 1.431s-.205 1.023-.579 1.413l-.895.894c-.378.38-.899.597-1.429.597-.539 0-1.059-.218-1.427-.603l-2.614-2.606v13.91c-.001 1.075-.869 1.887-2.019 1.887z" fill="#2aa8e2"/></svg>