<svg height="100" viewBox="0 0 100 100" width="100" xmlns="http://www.w3.org/2000/svg"><path d="m67.75 0h-49.917c-2.761 0-5 2.239-5 5v90c0 2.761 2.239 5 5 5h65.333c2.761 0 5-2.239 5-5v-74.583z" fill="#44486b"/><g fill="#fff"><path d="m67.75 15.417c0 2.761 2.239 5 5 5h15.417l-20.417-20.417z" opacity=".3"/><path d="m44.81 60.654-2.663 9.596h-8.765l11.428-37.389h11.095l11.593 37.389h-9.096l-2.884-9.596c-.001 0-10.708 0-10.708 0zm9.486-6.324-2.329-7.932c-.666-2.219-1.332-4.993-1.886-7.212h-.111c-.555 2.219-1.11 5.048-1.719 7.212l-2.219 7.932z"/><path d="m30.998 75.707h39.004v5.959h-39.004z"/></g></svg>