<svg height="100" viewBox="0 0 100 100" width="100" xmlns="http://www.w3.org/2000/svg"><path d="m67.75 0h-49.917c-2.761 0-5 2.239-5 5v90c0 2.761 2.239 5 5 5h65.333c2.761 0 5-2.239 5-5v-74.583z" fill="#44486b" opacity=".9"/><g fill="#fff"><path d="m67.75 15.417c0 2.761 2.239 5 5 5h15.417l-20.417-20.417z" opacity=".4"/><path d="m36.039 81.667h-9.219v-8.083h9.219z"/><path d="m53.626 51.829c1.074-1.556 2.388-2.773 3.946-3.646s3.283-1.31 5.178-1.31c3.556 0 6.351 1.184 8.383 3.551 2.031 2.368 3.046 6.026 3.046 10.972v20.269h-9.219v-20.378c0-2.659-.468-4.541-1.405-5.649-.937-1.107-2.333-1.662-4.184-1.662-1.263 0-2.378.227-3.347.681-.968.455-1.768 1.092-2.399 1.915v25.095h-9.22v-49.255h9.22v19.417z"/></g></svg>