<svg height="100" viewBox="0 0 100 100" width="100" xmlns="http://www.w3.org/2000/svg"><path d="m67.75 0h-49.917c-2.761 0-5 2.239-5 5v90c0 2.761 2.239 5 5 5h65.333c2.761 0 5-2.239 5-5v-74.583z" fill="#ff543d"/><g fill="#fff"><path d="m67.75 15.417c0 2.761 2.239 5 5 5h15.417l-20.417-20.417z" opacity=".3"/><path d="m71.24 30.364-4.104 46.104-18.53 5.198-18.404-5.198-4.107-46.104zm-8.401 9.425h-28.345l1.507 17.123h19.628l-.712 7.309-6.312 1.704-6.286-1.704-.415-4.485h-5.611l.708 8.911 11.605 3.207h.126v-.032l11.517-3.175 1.603-17.445h-20.656l-.483-5.802h21.611z"/></g></svg>