<svg height="100" viewBox="0 0 100 100" width="100" xmlns="http://www.w3.org/2000/svg"><path d="m67.75 0h-49.917c-2.761 0-5 2.239-5 5v90c0 2.761 2.239 5 5 5h65.333c2.761 0 5-2.239 5-5v-74.583z" fill="#0091ff"/><g fill="#fff"><path d="m67.75 15.417c0 2.761 2.239 5 5 5h15.417l-20.417-20.417z" opacity=".3"/><path d="m77.672 74.172c-.563 0-1.126-.202-1.573-.612l-14.014-12.856-8.898 8.788c-.916.903-2.389.893-3.292-.02-.903-.915-.894-2.389.02-3.292l2.427-2.396-12.879-12.774-15.562 14.274c-.948.87-2.42.805-3.289-.142-.869-.948-.805-2.42.142-3.289l17.189-15.766c.178-.166.377-.299.587-.398.331-.157.691-.232 1.045-.223h.002c.35.008.699.094 1.018.258.209.109.406.251.58.426l14.48 14.363 4.727-4.668c.178-.177.376-.32.589-.428.313-.161.657-.244 1.001-.252.353-.01.705.062 1.033.213 0 0 .002.002.002.001.216.101.421.237.605.407l15.636 14.343c.947.869 1.011 2.342.142 3.289-.461.501-1.089.754-1.718.754zm-21.741-23.954c-4.519 0-8.195-3.677-8.195-8.195s3.676-8.195 8.195-8.195 8.195 3.677 8.195 8.195-3.676 8.195-8.195 8.195zm0-11.735c-1.953 0-3.54 1.588-3.54 3.54s1.588 3.54 3.54 3.54 3.54-1.588 3.54-3.54c.001-1.952-1.587-3.54-3.54-3.54z"/></g></svg>