<svg height="100" viewBox="0 0 100 100" width="100" xmlns="http://www.w3.org/2000/svg"><path d="m67.75 0h-49.917c-2.761 0-5 2.239-5 5v90c0 2.761 2.239 5 5 5h65.333c2.761 0 5-2.239 5-5v-74.583z" fill="#0091ff"/><g fill="#fff"><path d="m67.75 15.417c0 2.761 2.239 5 5 5h15.417l-20.417-20.417z" opacity=".3"/><path d="m55.468 46.472v25.568c0 1.992.145 3.317.434 3.978.289.66.718 1.153 1.285 1.477s1.604.485 3.109.485v1.251h-15.459v-1.251c1.551 0 2.594-.15 3.127-.451.532-.3.955-.799 1.268-1.493.312-.696.469-2.027.469-3.995v-12.264c0-3.45-.104-5.685-.313-6.705-.162-.741-.417-1.256-.764-1.546-.347-.289-.822-.434-1.424-.434-.649 0-1.436.174-2.363.521l-.486-1.251 9.589-3.891h1.528zm-2.884-13.275c.973 0 1.8.342 2.484 1.025.683.684 1.025 1.511 1.025 2.484 0 .972-.343 1.806-1.025 2.501-.684.695-1.511 1.042-2.484 1.042s-1.807-.347-2.502-1.042-1.042-1.529-1.042-2.501c0-.973.341-1.801 1.025-2.484.683-.683 1.523-1.025 2.519-1.025z"/></g></svg>