<svg height="100" viewBox="0 0 100 100" width="100" xmlns="http://www.w3.org/2000/svg"><path d="m67.75 0h-49.917c-2.761 0-5 2.239-5 5v90c0 2.761 2.239 5 5 5h65.333c2.761 0 5-2.239 5-5v-74.583z" fill="#e54b37"/><g fill="#fff"><path d="m67.75 15.417c0 2.761 2.239 5 5 5h15.417l-20.417-20.417z" opacity=".3"/><path d="m46.724 54.81h4.577v12.826c0 5.781-2.77 7.798-7.226 7.798-1.054 0-2.439-.18-3.342-.482l.512-3.704c.633.211 1.445.361 2.348.361 1.927 0 3.131-.873 3.131-4.035z"/><path d="m55.273 70.375c1.234.633 3.131 1.265 5.088 1.265 2.108 0 3.221-.873 3.221-2.198 0-1.264-.964-1.987-3.402-2.86-3.372-1.174-5.57-3.041-5.57-5.992 0-3.462 2.89-6.112 7.677-6.112 2.288 0 3.974.482 5.179 1.024l-1.024 3.704c-.813-.391-2.258-.964-4.245-.964s-2.951.904-2.951 1.957c0 1.295 1.144 1.867 3.763 2.86 3.583 1.325 5.269 3.191 5.269 6.052 0 3.402-2.62 6.292-8.189 6.292-2.318 0-4.607-.602-5.751-1.234z"/><path d="m67.248 81.667h-34.642c-3.789 0-6.871-3.082-6.871-6.871v-34.642c0-3.789 3.082-6.871 6.871-6.871h34.642c3.789 0 6.871 3.082 6.871 6.871v34.642c0 3.788-3.083 6.871-6.871 6.871zm-34.642-46.094c-2.526 0-4.581 2.055-4.581 4.581v34.642c0 2.526 2.055 4.581 4.581 4.581h34.642c2.526 0 4.581-2.055 4.581-4.581v-34.642c0-2.526-2.055-4.581-4.581-4.581z"/></g></svg>