<svg height="100" viewBox="0 0 100 100" width="100" xmlns="http://www.w3.org/2000/svg"><path d="m67.75 0h-49.917c-2.761 0-5 2.239-5 5v90c0 2.761 2.239 5 5 5h65.333c2.761 0 5-2.239 5-5v-74.583z" fill="#231f20"/><g fill="#fff"><path d="m67.75 15.417c0 2.761 2.239 5 5 5h15.417l-20.417-20.417z" opacity=".3"/><path d="m76.672 39.89h-51.729c-2.405 0-4.36 1.955-4.36 4.36v29.061c0 2.403 1.955 4.355 4.36 4.355h51.73c2.405 0 4.36-1.952 4.36-4.355v-29.061c0-2.406-1.955-4.36-4.361-4.36zm-22.086 30.215-7.556.01v-11.335l-5.667 7.264-5.667-7.264v11.334h-7.556v-22.668h7.556l5.667 7.556 5.667-7.556 7.556-.007zm11.279 1.888-9.39-13.213h5.667v-11.334h7.554v11.334h5.667z"/></g></svg>