<svg height="100" viewBox="0 0 100 100" width="100" xmlns="http://www.w3.org/2000/svg"><path d="m67.75 0h-49.917c-2.761 0-5 2.239-5 5v90c0 2.761 2.239 5 5 5h65.333c2.761 0 5-2.239 5-5v-74.583z" fill="#c0a574"/><g fill="#fff"><path d="m67.75 15.417c0 2.761 2.239 5 5 5h15.417l-20.417-20.417z" opacity=".3"/><path d="m53.731 43.28-1.46-11.573h16.862l7.747 11.621zm23.483.993v.055l-23.428-.048v9.781h-6.673v-9.794l-23.334-.048v-.055h-.121l1.879 35.7h49.379l2.431-35.589zm-30.01-1.007 1.858-11.56h-18.075l-6.907 11.512z"/></g></svg>