<svg height="100" viewBox="0 0 100 100" width="100" xmlns="http://www.w3.org/2000/svg"><path d="m67.75 0h-49.917c-2.761 0-5 2.239-5 5v90c0 2.761 2.239 5 5 5h65.333c2.761 0 5-2.239 5-5v-74.583z" fill="#fe0000"/><g fill="#fff"><path d="m67.75 15.417c0 2.761 2.239 5 5 5h15.417l-20.417-20.417z" opacity=".5"/><path d="m36.574 68.817c-6.444 2.754-7.219 9.91-5.757 8.31 8.691-9.728 13.56-17.636 16.266-23.604-6.003-10.673-5.666-23.799 1.319-21.115 5.435 2.084 2.849 7.124 2.849 7.124s-.728-6.162-4.116-5.197c-.814.205-1.792 7.967 1.501 15.369 2.22-6.224 1.765-9.456 1.765-9.456s5.623 1.464.511 13.454c.631.872 1.315 1.705 2.111 2.497 1.17 1.34 2.348 2.493 3.5 3.496 3.446-1.245 6.843-2.144 9.508-2.144 8.447 0 8.236 8.503 8.236 8.503-1.889-4.287-7.636-4.664-13.907-3.541 7.316 4.453 13.281 3.204 13.281 3.204-.62 5.156-8.773 5.619-17.99-2.133-5.03 1.356-9.867 3.287-12.828 4.564-7.665 11.707-14.432 17.436-15.887 10.547-1.838-8.741 9.638-9.878 9.638-9.878zm14.018-10.25-1.232-1.547-1.263 2.369c-1.06 1.892-2.125 3.709-3.188 5.429 2.197-1.1 5.034-2.47 8.037-3.729-.776-.776-1.566-1.623-2.354-2.522z"/></g></svg>