<svg height="100" viewBox="0 0 100 100" width="100" xmlns="http://www.w3.org/2000/svg"><path d="m67.75 0h-49.917c-2.761 0-5 2.239-5 5v90c0 2.761 2.239 5 5 5h65.333c2.761 0 5-2.239 5-5v-74.583z" fill="#ff543d"/><g fill="#fff"><path d="m67.75 15.417c0 2.761 2.239 5 5 5h15.417l-20.417-20.417z" opacity=".4"/><path d="m47.919 55.951h17.161c0 9.477-7.683 17.161-17.161 17.161s-17.161-7.683-17.161-17.161 7.684-17.161 17.161-17.161zm3.049-3.048h17.161c0-9.477-7.683-17.161-17.161-17.161zm24.271-22.766h-50.478v1.92h50.478zm0 47.734h-50.478v1.92h21.573v1.875h7.133v-1.875h21.772z"/></g></svg>