<svg height="100" viewBox="0 0 100 100" width="100" xmlns="http://www.w3.org/2000/svg"><path d="m67.75 0h-49.917c-2.761 0-5 2.239-5 5v90c0 2.761 2.239 5 5 5h65.333c2.761 0 5-2.239 5-5v-74.583z" fill="#2db965" opacity=".9"/><g fill="#fff"><path d="m67.75 15.417c0 2.761 2.239 5 5 5h15.417l-20.417-20.417z" opacity=".4"/><path d="m74 81.467h-46.75v-50.505h46.75zm-31.354-2.253h29.101v-9.763h-29.101zm-13.143 0h10.89v-9.763h-10.89zm13.143-12.204h29.101v-9.575h-29.101zm-13.143 0h10.89v-9.575h-10.89zm13.143-12.016h29.101v-9.575h-29.101zm-13.143 0h10.89v-9.575h-10.89zm13.143-12.016h29.101v-9.763h-29.101zm-13.143 0h10.89v-9.763h-10.89z"/></g></svg>