<svg height="100" viewBox="0 0 100 100" width="100" xmlns="http://www.w3.org/2000/svg"><path d="m67.75 0h-49.917c-2.761 0-5 2.239-5 5v90c0 2.761 2.239 5 5 5h65.333c2.761 0 5-2.239 5-5v-74.583z" fill="#231f20" opacity=".9"/><g fill="#fff"><path d="m67.75 15.417c0 2.761 2.239 5 5 5h15.417l-20.417-20.417z" opacity=".4"/><path d="m44.192 65.506v-2.643c0-1.214.13-2.314.381-3.3.242-.988.628-1.924 1.138-2.818.512-.891 1.174-1.76 1.982-2.605.804-.846 1.785-1.722 2.93-2.625.999-.786 1.841-1.489 2.533-2.106.691-.619 1.243-1.233 1.679-1.839.424-.606.736-1.242.92-1.906.196-.669.289-1.443.289-2.324 0-1.356-.458-2.474-1.369-3.352-.925-.885-2.326-1.32-4.199-1.32-1.639 0-3.408.346-5.299 1.035-1.895.689-3.851 1.534-5.873 2.533l-3.644-7.885c1.028-.595 2.14-1.161 3.341-1.698 1.201-.535 2.445-1.011 3.747-1.426 1.296-.415 2.611-.743 3.94-.982 1.336-.24 2.644-.356 3.923-.356 2.434 0 4.621.292 6.574.874 1.949.584 3.604 1.435 4.964 2.551 1.347 1.12 2.387 2.476 3.116 4.07s1.093 3.415 1.093 5.458c0 1.497-.171 2.838-.503 4.016-.332 1.179-.828 2.272-1.48 3.283-.653 1.011-1.475 1.985-2.467 2.925-.988.941-2.13 1.931-3.437 2.979-1.001.786-1.819 1.471-2.452 2.052-.628.581-1.12 1.136-1.48 1.659-.355.526-.597 1.069-.729 1.626-.133.559-.2 1.217-.2 1.978v2.144zm-1.173 12.2c0-1.116.158-2.061.478-2.833.323-.777.773-1.403 1.345-1.877.57-.476 1.239-.82 2.014-1.033.773-.213 1.594-.321 2.479-.321.833 0 1.623.105 2.371.321s1.41.557 1.982 1.033c.574.473 1.021 1.1 1.359 1.877.33.77.497 1.718.497 2.833 0 1.074-.164 1.99-.497 2.751-.337.763-.786 1.394-1.359 1.893-.573.498-1.235.862-1.982 1.087-.745.227-1.536.339-2.368.339-.887 0-1.709-.112-2.479-.339-.777-.225-1.446-.589-2.014-1.087-.573-.498-1.021-1.129-1.345-1.893-.322-.761-.481-1.677-.481-2.751z"/></g></svg>