<svg height="100" viewBox="0 0 100 100" width="100" xmlns="http://www.w3.org/2000/svg"><path d="m67.75 0h-49.917c-2.761 0-5 2.239-5 5v90c0 2.761 2.239 5 5 5h65.333c2.761 0 5-2.239 5-5v-74.583z" fill="#f90"/><g fill="#fff"><path d="m67.75 15.417c0 2.761 2.239 5 5 5h15.417l-20.417-20.417z" opacity=".3"/><path d="m73.005 57.65c0-4.533-1.1-8.812-3.037-12.594.704-.625 1.156-1.526 1.156-2.542 0-1.884-1.528-3.412-3.412-3.412-.549 0-1.06.142-1.519.372-5.089-5.85-12.578-9.558-20.921-9.558-4.58 0-9.035 1.133-13.037 3.271-.447-.352-1.003-.571-1.616-.571-1.45 0-2.625 1.175-2.625 2.625 0 1.449 1.175 2.625 2.625 2.625s2.625-1.175 2.625-2.625c0-.069-.015-.134-.02-.202 3.698-1.976 7.816-3.023 12.048-3.023 7.76 0 14.72 3.47 19.424 8.935-.245.47-.396.997-.396 1.563 0 .276.042.541.104.798l-.011-.015-16.847 2.322-7.349 11.681 4.287 6.168 13.692-3.281 7.752-14.776c.52.321 1.128.516 1.784.516.112 0 .218-.022.327-.033 1.827 3.524 2.867 7.52 2.867 11.756 0 7.892-3.609 15.243-9.74 20.092-.409-.263-.893-.42-1.415-.42-1.45 0-2.625 1.175-2.625 2.625s1.175 2.625 2.625 2.625c1.449 0 2.625-1.175 2.625-2.625 0-.154-.02-.303-.045-.449 6.717-5.243 10.674-13.249 10.674-21.848zm-17.333-5.028c.108.377.185.767.185 1.179 0 2.368-1.919 4.287-4.287 4.287s-4.287-1.919-4.287-4.287 1.919-4.287 4.287-4.287c1.194 0 2.271.489 3.049 1.277l9.853-7.258c.218.693.643 1.29 1.214 1.714z"/></g></svg>