<svg height="100" viewBox="0 0 100 100" width="100" xmlns="http://www.w3.org/2000/svg"><path d="m67.75 0h-49.917c-2.761 0-5 2.239-5 5v90c0 2.761 2.239 5 5 5h65.333c2.761 0 5-2.239 5-5v-74.583z" fill="#ff543d" opacity=".9"/><g fill="#fff"><path d="m67.75 15.417c0 2.761 2.239 5 5 5h15.417l-20.417-20.417z" opacity=".4"/><path d="m33.415 81.667c-.608 0-1.216-.154-1.764-.463-1.129-.637-1.827-1.833-1.827-3.128v-44.09c0-1.296.699-2.492 1.827-3.128 1.129-.636 2.513-.615 3.622.055l36.47 22.045c1.076.65 1.734 1.816 1.734 3.074s-.657 2.423-1.734 3.074l-36.47 22.046c-.571.342-1.214.515-1.858.515zm3.591-41.314v31.356l25.935-15.679z"/></g></svg>