<svg viewBox="0 0 320 280" xmlns="http://www.w3.org/2000/svg" xmlns:xlink="http://www.w3.org/1999/xlink"><filter id="a" height="2.2" width="1.5" x="-.3" y="-.3"><feFlood flood-opacity=".6" result="flood"/><feComposite in="flood" in2="SourceGraphic" operator="in" result="composite1"/><feGaussianBlur in="composite1" result="blur" stdDeviation="6"/><feOffset dx="1" dy="8" result="offset"/><feComposite in="SourceGraphic" in2="offset"/></filter><path d="m74 14-4 8h10l4-8zm16 12-4 9h12l4-9zm14 13-4 10h16l4-10zm18 9-6 13h20l6-13zm22 7-8 18h22l8-18zm48 2-24 2-9 21 24-1zm4 0-9 23c11-2 25 0 38 3l-20 49c-13-3-25-4-38-4l-6 16c12 0 26 1 38 4l-21 50a165 165 0 0 0 -37-5l-9 22c56 0 84 25 104 45l64-160c-20-20-48-43-104-43zm-150 24-4 8h10l4-8zm136 1-24 1-8 19 24-1zm60 6c14 5 23 12 32 19l-19 49c-10-8-21-14.4-33-19zm-180 5-4 9h12l4-9zm111 11-24 1-7 18 24-1zm-97 2-4 10h16l4-10zm18 9-6 13h20l6-13zm22 7-8 18h22l8-18zm25 4-8 20 23-1 8-19zm14 22-23 1-8 19 24-1zm-135 1-4 8h10l4-8zm195 4a107 107 0 0 1 33 19l-20 48a162 162 0 0 0 -33-17zm-179 8-4 9h12l4-9zm110 10-24 1-8 19 24-1zm-96 3-4 10h16l4-10zm18 9-6 13h20l6-13zm22 7-8 18h22l8-18zm47 3-24 1-9 21h24z" filter="url(#a)"/><path d="m66 37-3 6h7l3-6zm16 13-3 7h9l3-7zm-24 9-3 6h7l3-6zm39 4-5 9h13l5-9zm-23 9-3 7h9l3-7zm40 0-4 11h16l4-11zm82 7-9 1-20 48c13 0 25 1 38 4l20-49c-10-2-20-4-29-4zm-60 1-6 13h18l6-13zm-47 5-5 9h12l5-9zm17 9-5 11h17l4-11zm22 8-6 13h18l5-13z" fill="#f60" filter="url(#a)" opacity=".8"/><path d="m39 105-3 6h7l3-6zm16 13-3 7h9l3-7zm-25 9-3 6h7l3-6zm40 4-5 9h12l5-9zm-24 9-3 7h9l3-7zm41 0-5 11h17l4-11zm74 4-20 49a165 165 0 0 1 37 5l21-50a189 189 0 0 0 -38-4zm-52 4-6 13h18l5-13zm-48 5-5 9h12l5-9zm17 9-5 11h17l4-11zm22 8-6 13h18l5-13z" fill="#09f" filter="url(#a)" opacity=".8"/><path d="m215 153a107 107 0 0 1 33 19l-20 48a162 162 0 0 0 -33-17z" fill="#fd2" opacity=".8"/><path d="m242 88c14 5 23 12 32 19l-19 49a122 122 0 0 0 -33-19z" fill="#1d6" opacity=".8"/></svg>