<svg xmlns="http://www.w3.org/2000/svg" width="400" height="369.091" viewBox="0 0 400 369.091"><g fill-rule="evenodd"><path fill="#f4f4f4" d="m0 184.672v184.672h200 200v-184.672-184.672h-200-200zm120.406-158.479c0 4.453.101 8.359.224 8.68.196.51 1.329.584 8.889.584 9.037 0 10.61.224 9.655 1.376-.715.862-.696 14.878.022 15.742.669.806 1.459.724-9.187.958l-9.418.207-.093 96.306-.093 96.307 1.201.011c.661.007 4.646.027 8.856.046 8.261.036 9.415.268 8.534 1.714-.601.986-.682 14.36-.091 15.072.365.439-.857.517-8.204.521-4.748.003-9.007.105-9.464.228l-.831.222v9.006 9.006l-7.664-.006c-4.215-.003-7.83-.127-8.033-.277-.245-.18-.338-44.511-.276-132.035l.094-131.763h7.939 7.94zm36.027 35.026c-.009 4.215.067 7.913.169 8.218.161.482-.934.554-8.403.554-4.723 0-8.587-.125-8.587-.277 0-.153 0-3.851 0-8.218v-7.941h8.418 8.418zm1.513 9.34c.249.249 3.142.347 8.2.277l7.816-.107v8.427c-.001 11.014-1.026 9.89 8.976 9.841l8.198-.04.202 8.615c.111 4.738.235 8.656.277 8.707.041.051 3.897.092 8.57.092h8.495v8.096c0 4.452.1 8.358.224 8.679.196.51 1.342.584 9.049.584h8.824v8.68 8.68h8.687 8.686l-.099 8.587-.099 8.587h-8.495-8.495l-.099-8.587-.099-8.587h-9.042-9.042v-8.68-8.68h-8.68-8.68v-8.679-8.68h-8.679-8.68v-8.679-8.68h-8.719c-7.799 0-8.695-.062-8.495-.584.123-.322.224-4.56.224-9.419 0-8.444.102-9.323.975-8.45m87.73 88.167c.067.152 3.821.194 8.341.092l8.219-.185-.001 8.403v8.403h-9.142-9.141l.106-8.495c.099-8.032.143-8.495.8-8.495.382 0 .75.124.818.277m17.86 17.465c.151.245 2.796.373 7.316.355 3.894-.016 7.451-.022 7.904-.014l.824.015.099 8.587.099 8.587 8.034.1 8.033.099v8.486 8.486l-34.441.094-34.442.094-.099 8.588-.099 8.587h8.686 8.687v17.728 17.729h9.049 9.049l.005 17.267c.003 9.497.136 17.471.295 17.721.211.333 2.512.481 8.581.554l8.293.1.096 17.636.096 17.636h-8.683-8.683v8.314 8.314l-17.637-.096-17.636-.096v-8.126-8.125l17.636-.096 17.637-.096v-17.725-17.725h-9.142-9.141l.099-17.728.1-17.729h-8.687-8.687v-17.729-17.728h-9.141-9.141l.099-17.175.1-17.174h26.77 26.771v-8.465c0-9.218.244-10.959 1.301-9.25m-89.575 43.384v8.68h8.676 8.676l.096 17.636.096 17.636 8.587.099 8.588.1v17.137c0 9.426-.101 17.4-.225 17.722-.244.638-1.253.811-1.253.215 0-.563-13.395-.492-13.961.073-.345.345-.443.345-.443 0 0-.243-.293-.443-.65-.443-.611 0-.647-.981-.598-16.528.028-9.09-.03-16.902-.129-17.359l-.181-.831h-8.639-8.64v-17.729-17.728h-8.495-8.495v-8.68-8.679h8.495 8.495zm-17.544 16.99c0 4.469.135 8.333.299 8.587.688 1.064-.296 1.201-8.631 1.201h-8.473v-9.056-9.056l8.403.099 8.402.1zm62.512 62.599 7.848.005v17.729 17.728h-8.679c-8.013 0-8.681-.05-8.698-.646-.01-.356-.002-7.727.017-16.381.026-11.475-.083-15.996-.405-16.702-.557-1.222.137-2.257 1.304-1.943.42.113 4.296.207 8.613.21"/><path fill="#050505" d="m104.433 149.861c-.062 87.524.031 131.855.276 132.035.203.15 3.818.274 8.033.277l7.664.006v-9.006-9.006l.831-.222c.457-.123 4.716-.225 9.464-.228 7.347-.004 8.569-.082 8.204-.521-.591-.712-.51-14.086.091-15.072.881-1.446-.273-1.678-8.534-1.714-4.21-.019-8.195-.039-8.856-.046l-1.201-.011.093-96.307.093-96.306 9.418-.207c10.646-.234 9.856-.152 9.187-.958-.718-.864-.737-14.88-.022-15.742.955-1.152-.618-1.376-9.655-1.376-7.56 0-8.693-.074-8.889-.584-.123-.321-.224-4.227-.224-8.68v-8.095h-7.94-7.939zm35.179-88.365v8.218c0 .152 3.864.277 8.587.277 7.469 0 8.564-.072 8.403-.554-.102-.305-.178-4.003-.169-8.218l.015-7.664h-8.418-8.418zm17.359 17.513c0 4.859-.101 9.097-.224 9.419-.2.522.696.584 8.495.584h8.719v8.68 8.679h8.68 8.679v8.68 8.679h8.68 8.68v8.68 8.68h9.042 9.042l.099 8.587.099 8.587h8.495 8.495l.099-8.587.099-8.587h-8.686-8.687v-8.68-8.68h-8.824c-7.707 0-8.853-.074-9.049-.584-.124-.321-.224-4.227-.224-8.679v-8.096h-8.495c-4.673 0-8.529-.041-8.57-.092-.042-.051-.166-3.969-.277-8.707l-.202-8.615-8.198.04c-10.002.049-8.977 1.173-8.976-9.841v-8.427l-7.816.107c-5.058.07-7.951-.028-8.2-.277-.873-.873-.975.006-.975 8.45m87.087 87.935-.106 8.495h9.141 9.142v-8.403l.001-8.403-8.219.185c-4.52.102-8.274.06-8.341-.092-.068-.153-.436-.277-.818-.277-.657 0-.701.463-.8 8.495m18.401 9.448c-.124.321-.224 4.394-.224 9.049v8.465h-26.771-26.77l-.1 17.174-.099 17.175h9.141 9.141v17.728 17.729h8.687 8.687l-.1 17.729-.099 17.728h9.141 9.142v17.725 17.725l-17.637.096-17.636.096v8.125 8.126l17.636.096 17.637.096v-8.314-8.314h8.683 8.683l-.096-17.636-.096-17.636-8.293-.1c-6.069-.073-8.37-.221-8.581-.554-.159-.25-.292-8.224-.295-17.721l-.005-17.267h-9.049-9.049v-17.729-17.728h-8.687-8.686l.099-8.587.099-8.588 34.442-.094 34.441-.094v-8.486-8.486l-8.033-.099-8.034-.1-.099-8.587-.099-8.587-.824-.015c-.453-.008-4.01-.002-7.904.014-4.52.018-7.165-.11-7.316-.355-.345-.558-.82-.469-1.077.201m-105.488 43.183v8.68h8.495 8.495v17.728 17.729h8.64 8.639l.181.831c.099.457.157 8.269.129 17.359-.049 15.547-.013 16.528.598 16.528.357 0 .65.2.65.443 0 .345.098.345.443 0 .566-.565 13.961-.636 13.961-.073 0 .596 1.009.423 1.253-.215.124-.322.225-8.296.225-17.722v-17.137l-8.588-.1-8.587-.099-.096-17.636-.096-17.636h-8.676-8.676v-8.68-8.679h-8.495-8.495zm-17.359 17.722v9.056h8.473c8.335 0 9.319-.137 8.631-1.201-.164-.254-.299-4.118-.299-8.587v-8.125l-8.402-.1-8.403-.099zm69.449 62.042c-.389.469-.399.789-.049 1.558.322.706.431 5.227.405 16.702-.019 8.654-.027 16.025-.017 16.381.017.596.685.646 8.698.646h8.679v-17.728-17.729l-7.848-.005c-4.317-.003-8.193-.097-8.613-.21-.46-.124-.96.029-1.255.385"/><path fill="#f4f4f4" d="m0 184.672v184.672h200 200v-184.672-184.672h-200-200zm120.406-158.479c0 4.453.101 8.359.224 8.68.196.51 1.329.584 8.889.584 9.037 0 10.61.224 9.655 1.376-.715.862-.696 14.878.022 15.742.669.806 1.459.724-9.187.958l-9.418.207-.093 96.306-.093 96.307 1.201.011c.661.007 4.646.027 8.856.046 8.261.036 9.415.268 8.534 1.714-.601.986-.682 14.36-.091 15.072.365.439-.857.517-8.204.521-4.748.003-9.007.105-9.464.228l-.831.222v9.006 9.006l-7.664-.006c-4.215-.003-7.83-.127-8.033-.277-.245-.18-.338-44.511-.276-132.035l.094-131.763h7.939 7.94zm36.027 35.026c-.009 4.215.067 7.913.169 8.218.161.482-.934.554-8.403.554-4.723 0-8.587-.125-8.587-.277 0-.153 0-3.851 0-8.218v-7.941h8.418 8.418zm1.513 9.34c.249.249 3.142.347 8.2.277l7.816-.107v8.427c-.001 11.014-1.026 9.89 8.976 9.841l8.198-.04.202 8.615c.111 4.738.235 8.656.277 8.707.041.051 3.897.092 8.57.092h8.495v8.096c0 4.452.1 8.358.224 8.679.196.51 1.342.584 9.049.584h8.824v8.68 8.68h8.687 8.686l-.099 8.587-.099 8.587h-8.495-8.495l-.099-8.587-.099-8.587h-9.042-9.042v-8.68-8.68h-8.68-8.68v-8.679-8.68h-8.679-8.68v-8.679-8.68h-8.719c-7.799 0-8.695-.062-8.495-.584.123-.322.224-4.56.224-9.419 0-8.444.102-9.323.975-8.45m87.73 88.167c.067.152 3.821.194 8.341.092l8.219-.185-.001 8.403v8.403h-9.142-9.141l.106-8.495c.099-8.032.143-8.495.8-8.495.382 0 .75.124.818.277m17.86 17.465c.151.245 2.796.373 7.316.355 3.894-.016 7.451-.022 7.904-.014l.824.015.099 8.587.099 8.587 8.034.1 8.033.099v8.486 8.486l-34.441.094-34.442.094-.099 8.588-.099 8.587h8.686 8.687v17.728 17.729h9.049 9.049l.005 17.267c.003 9.497.136 17.471.295 17.721.211.333 2.512.481 8.581.554l8.293.1.096 17.636.096 17.636h-8.683-8.683v8.314 8.314l-17.637-.096-17.636-.096v-8.126-8.125l17.636-.096 17.637-.096v-17.725-17.725h-9.142-9.141l.099-17.728.1-17.729h-8.687-8.687v-17.729-17.728h-9.141-9.141l.099-17.175.1-17.174h26.77 26.771v-8.465c0-9.218.244-10.959 1.301-9.25m-89.575 43.384v8.68h8.676 8.676l.096 17.636.096 17.636 8.587.099 8.588.1v17.137c0 9.426-.101 17.4-.225 17.722-.244.638-1.253.811-1.253.215 0-.563-13.395-.492-13.961.073-.345.345-.443.345-.443 0 0-.243-.293-.443-.65-.443-.611 0-.647-.981-.598-16.528.028-9.09-.03-16.902-.129-17.359l-.181-.831h-8.639-8.64v-17.729-17.728h-8.495-8.495v-8.68-8.679h8.495 8.495zm-17.544 16.99c0 4.469.135 8.333.299 8.587.688 1.064-.296 1.201-8.631 1.201h-8.473v-9.056-9.056l8.403.099 8.402.1zm62.512 62.599 7.848.005v17.729 17.728h-8.679c-8.013 0-8.681-.05-8.698-.646-.01-.356-.002-7.727.017-16.381.026-11.475-.083-15.996-.405-16.702-.557-1.222.137-2.257 1.304-1.943.42.113 4.296.207 8.613.21"/></g></svg>